<?xml version="1.0" encoding="UTF-8" standalone="no"?>
<!DOCTYPE svg PUBLIC "-//W3C//DTD SVG 1.1//EN"
 "http://www.w3.org/Graphics/SVG/1.1/DTD/svg11.dtd">
<!-- Generated by graphviz version 2.40.1 (20161225.0304)
 -->
<!-- Title: dependencies Pages: 1 -->
<svg width="3743pt" height="284pt"
 viewBox="0.00 0.00 3743.00 284.00" xmlns="http://www.w3.org/2000/svg" xmlns:xlink="http://www.w3.org/1999/xlink">
<g id="graph0" class="graph" transform="scale(1 1) rotate(0) translate(4 280)">
<title>dependencies</title>
<polygon fill="#ffffff" stroke="transparent" points="-4,4 -4,-280 3739,-280 3739,4 -4,4"/>
<text text-anchor="start" x="1846.5091" y="-42.4" font-family="sans-serif" font-weight="bold" font-size="14.00" fill="#000000">Legend</text>
<polygon fill="#ffffb3" stroke="transparent" points="1633.5,-10 1633.5,-30 1653.5,-30 1653.5,-10 1633.5,-10"/>
<text text-anchor="start" x="1657.129" y="-15.4" font-family="sans-serif" font-size="14.00" fill="#000000"> &#160;Declarations</text>
<polygon fill="#8dd3c7" stroke="transparent" points="1746.5,-10 1746.5,-30 1766.5,-30 1766.5,-10 1746.5,-10"/>
<text text-anchor="start" x="1770.2251" y="-15.4" font-family="sans-serif" font-size="14.00" fill="#000000"> &#160;Module</text>
<polygon fill="#80b1d3" stroke="transparent" points="1832.5,-10 1832.5,-30 1852.5,-30 1852.5,-10 1832.5,-10"/>
<text text-anchor="start" x="1856.2812" y="-15.4" font-family="sans-serif" font-size="14.00" fill="#000000"> &#160;Bootstrap</text>
<polygon fill="#fdb462" stroke="transparent" points="1929.5,-10 1929.5,-30 1949.5,-30 1949.5,-10 1929.5,-10"/>
<text text-anchor="start" x="1953.1732" y="-15.4" font-family="sans-serif" font-size="14.00" fill="#000000"> &#160;Providers</text>
<polygon fill="#fb8072" stroke="transparent" points="2025.5,-10 2025.5,-30 2045.5,-30 2045.5,-10 2025.5,-10"/>
<text text-anchor="start" x="2049.2258" y="-15.4" font-family="sans-serif" font-size="14.00" fill="#000000"> &#160;Exports</text>
<g id="clust1" class="cluster">
<title>cluster_AppModule</title>
<polygon fill="none" stroke="#000000" stroke-dasharray="1,5" points="8,-70 8,-268 3727,-268 3727,-70 8,-70"/>
</g>
<g id="clust2" class="cluster">
<title>cluster_AppModule_declarations</title>
<polygon fill="none" stroke="#000000" points="2074,-78 2074,-130 3719,-130 3719,-78 2074,-78"/>
</g>
<g id="clust18" class="cluster">
<title>cluster_AppModule_bootstrap</title>
<polygon fill="none" stroke="#000000" points="2174,-208 2174,-260 2262,-260 2262,-208 2174,-208"/>
</g>
<g id="clust19" class="cluster">
<title>cluster_AppModule_providers</title>
<polygon fill="none" stroke="#000000" points="16,-78 16,-130 2066,-130 2066,-78 16,-78"/>
</g>
<!-- MyApp -->
<g id="node1" class="node">
<title>MyApp</title>
<polygon fill="#ffffb3" stroke="#000000" points="3710.5529,-122 3651.4471,-122 3651.4471,-86 3710.5529,-86 3710.5529,-122"/>
<text text-anchor="middle" x="3681" y="-99.8" font-family="Times,serif" font-size="14.00" fill="#000000">MyApp</text>
</g>
<!-- AppModule -->
<g id="node14" class="node">
<title>AppModule</title>
<polygon fill="#8dd3c7" stroke="#000000" points="2259.6571,-187 2256.6571,-191 2235.6571,-191 2232.6571,-187 2176.3429,-187 2176.3429,-151 2259.6571,-151 2259.6571,-187"/>
<text text-anchor="middle" x="2218" y="-164.8" font-family="Times,serif" font-size="14.00" fill="#000000">AppModule</text>
</g>
<!-- MyApp&#45;&gt;AppModule -->
<g id="edge1" class="edge">
<title>MyApp&#45;&gt;AppModule</title>
<path fill="none" stroke="#000000" d="M3681,-122.1532C3681,-145.7566 3681,-184 3681,-184 3681,-184 2269.8167,-184 2269.8167,-184"/>
<polygon fill="#000000" stroke="#000000" points="2269.8167,-180.5001 2259.8167,-184 2269.8167,-187.5001 2269.8167,-180.5001"/>
</g>
<!-- UsersPage -->
<g id="node2" class="node">
<title>UsersPage</title>
<polygon fill="#ffffb3" stroke="#000000" points="3633.5828,-122 3558.4172,-122 3558.4172,-86 3633.5828,-86 3633.5828,-122"/>
<text text-anchor="middle" x="3596" y="-99.8" font-family="Times,serif" font-size="14.00" fill="#000000">UsersPage</text>
</g>
<!-- UsersPage&#45;&gt;AppModule -->
<g id="edge2" class="edge">
<title>UsersPage&#45;&gt;AppModule</title>
<path fill="none" stroke="#000000" d="M3596,-122.2479C3596,-145.0179 3596,-181 3596,-181 3596,-181 2269.9932,-181 2269.9932,-181"/>
<polygon fill="#000000" stroke="#000000" points="2269.9933,-177.5001 2259.9932,-181 2269.9932,-184.5001 2269.9933,-177.5001"/>
</g>
<!-- LoginPage -->
<g id="node3" class="node">
<title>LoginPage</title>
<polygon fill="#ffffb3" stroke="#000000" points="3540.1558,-122 3463.8442,-122 3463.8442,-86 3540.1558,-86 3540.1558,-122"/>
<text text-anchor="middle" x="3502" y="-99.8" font-family="Times,serif" font-size="14.00" fill="#000000">LoginPage</text>
</g>
<!-- LoginPage&#45;&gt;AppModule -->
<g id="edge3" class="edge">
<title>LoginPage&#45;&gt;AppModule</title>
<path fill="none" stroke="#000000" d="M3502,-122.2921C3502,-144.2057 3502,-178 3502,-178 3502,-178 2269.991,-178 2269.991,-178"/>
<polygon fill="#000000" stroke="#000000" points="2269.991,-174.5001 2259.991,-178 2269.9909,-181.5001 2269.991,-174.5001"/>
</g>
<!-- RegisterPage -->
<g id="node4" class="node">
<title>RegisterPage</title>
<polygon fill="#ffffb3" stroke="#000000" points="3445.8641,-122 3356.1359,-122 3356.1359,-86 3445.8641,-86 3445.8641,-122"/>
<text text-anchor="middle" x="3401" y="-99.8" font-family="Times,serif" font-size="14.00" fill="#000000">RegisterPage</text>
</g>
<!-- RegisterPage&#45;&gt;AppModule -->
<g id="edge4" class="edge">
<title>RegisterPage&#45;&gt;AppModule</title>
<path fill="none" stroke="#000000" d="M3401,-122.2843C3401,-143.3211 3401,-175 3401,-175 3401,-175 2269.7561,-175 2269.7561,-175"/>
<polygon fill="#000000" stroke="#000000" points="2269.7561,-171.5001 2259.7561,-175 2269.7561,-178.5001 2269.7561,-171.5001"/>
</g>
<!-- ResetpwdPage -->
<g id="node5" class="node">
<title>ResetpwdPage</title>
<polygon fill="#ffffb3" stroke="#000000" points="3338.4203,-122 3239.5797,-122 3239.5797,-86 3338.4203,-86 3338.4203,-122"/>
<text text-anchor="middle" x="3289" y="-99.8" font-family="Times,serif" font-size="14.00" fill="#000000">ResetpwdPage</text>
</g>
<!-- ResetpwdPage&#45;&gt;AppModule -->
<g id="edge5" class="edge">
<title>ResetpwdPage&#45;&gt;AppModule</title>
<path fill="none" stroke="#000000" d="M3289,-122.2228C3289,-142.3652 3289,-172 3289,-172 3289,-172 2269.9845,-172 2269.9845,-172"/>
<polygon fill="#000000" stroke="#000000" points="2269.9845,-168.5001 2259.9845,-172 2269.9844,-175.5001 2269.9845,-168.5001"/>
</g>
<!-- ProfilePage -->
<g id="node6" class="node">
<title>ProfilePage</title>
<polygon fill="#ffffb3" stroke="#000000" points="3221.812,-122 3140.188,-122 3140.188,-86 3221.812,-86 3221.812,-122"/>
<text text-anchor="middle" x="3181" y="-99.8" font-family="Times,serif" font-size="14.00" fill="#000000">ProfilePage</text>
</g>
<!-- ProfilePage&#45;&gt;AppModule -->
<g id="edge6" class="edge">
<title>ProfilePage&#45;&gt;AppModule</title>
<path fill="none" stroke="#000000" d="M3181,-122.1061C3181,-141.3391 3181,-169 3181,-169 3181,-169 2269.688,-169 2269.688,-169"/>
<polygon fill="#000000" stroke="#000000" points="2269.688,-165.5001 2259.688,-169 2269.688,-172.5001 2269.688,-165.5001"/>
</g>
<!-- ListaConversazioniPage -->
<g id="node7" class="node">
<title>ListaConversazioniPage</title>
<polygon fill="#ffffb3" stroke="#000000" points="3122.0716,-122 2969.9284,-122 2969.9284,-86 3122.0716,-86 3122.0716,-122"/>
<text text-anchor="middle" x="3046" y="-99.8" font-family="Times,serif" font-size="14.00" fill="#000000">ListaConversazioniPage</text>
</g>
<!-- ListaConversazioniPage&#45;&gt;AppModule -->
<g id="edge7" class="edge">
<title>ListaConversazioniPage&#45;&gt;AppModule</title>
<path fill="none" stroke="#000000" d="M3046,-122.2667C3046,-140.5552 3046,-166 3046,-166 3046,-166 2269.9131,-166 2269.9131,-166"/>
<polygon fill="#000000" stroke="#000000" points="2269.9131,-162.5001 2259.9131,-166 2269.9131,-169.5001 2269.9131,-162.5001"/>
</g>
<!-- DettaglioConversazionePage -->
<g id="node8" class="node">
<title>DettaglioConversazionePage</title>
<polygon fill="#ffffb3" stroke="#000000" points="2952.0015,-122 2773.9985,-122 2773.9985,-86 2952.0015,-86 2952.0015,-122"/>
<text text-anchor="middle" x="2863" y="-99.8" font-family="Times,serif" font-size="14.00" fill="#000000">DettaglioConversazionePage</text>
</g>
<!-- DettaglioConversazionePage&#45;&gt;AppModule -->
<g id="edge8" class="edge">
<title>DettaglioConversazionePage&#45;&gt;AppModule</title>
<path fill="none" stroke="#000000" d="M2863,-122.0225C2863,-139.3734 2863,-163 2863,-163 2863,-163 2269.8233,-163 2269.8233,-163"/>
<polygon fill="#000000" stroke="#000000" points="2269.8233,-159.5001 2259.8233,-163 2269.8232,-166.5001 2269.8233,-159.5001"/>
</g>
<!-- PlaceholderPage -->
<g id="node9" class="node">
<title>PlaceholderPage</title>
<polygon fill="#ffffb3" stroke="#000000" points="2755.795,-122 2646.205,-122 2646.205,-86 2755.795,-86 2755.795,-122"/>
<text text-anchor="middle" x="2701" y="-99.8" font-family="Times,serif" font-size="14.00" fill="#000000">PlaceholderPage</text>
</g>
<!-- PlaceholderPage&#45;&gt;AppModule -->
<g id="edge9" class="edge">
<title>PlaceholderPage&#45;&gt;AppModule</title>
<path fill="none" stroke="#000000" d="M2701,-122.027C2701,-138.3976 2701,-160 2701,-160 2701,-160 2270.0181,-160 2270.0181,-160"/>
<polygon fill="#000000" stroke="#000000" points="2270.0182,-156.5001 2260.0181,-160 2270.0181,-163.5001 2270.0182,-156.5001"/>
</g>
<!-- PopoverPage -->
<g id="node10" class="node">
<title>PopoverPage</title>
<polygon fill="#ffffb3" stroke="#000000" points="2627.8697,-122 2538.1303,-122 2538.1303,-86 2627.8697,-86 2627.8697,-122"/>
<text text-anchor="middle" x="2583" y="-99.8" font-family="Times,serif" font-size="14.00" fill="#000000">PopoverPage</text>
</g>
<!-- PopoverPage&#45;&gt;AppModule -->
<g id="edge10" class="edge">
<title>PopoverPage&#45;&gt;AppModule</title>
<path fill="none" stroke="#000000" d="M2583,-122.2396C2583,-137.5706 2583,-157 2583,-157 2583,-157 2269.8701,-157 2269.8701,-157"/>
<polygon fill="#000000" stroke="#000000" points="2269.8702,-153.5001 2259.8701,-157 2269.8701,-160.5001 2269.8702,-153.5001"/>
</g>
<!-- PopoverProfilePage -->
<g id="node11" class="node">
<title>PopoverProfilePage</title>
<polygon fill="#ffffb3" stroke="#000000" points="2519.9692,-122 2392.0308,-122 2392.0308,-86 2519.9692,-86 2519.9692,-122"/>
<text text-anchor="middle" x="2456" y="-99.8" font-family="Times,serif" font-size="14.00" fill="#000000">PopoverProfilePage</text>
</g>
<!-- PopoverProfilePage&#45;&gt;AppModule -->
<g id="edge11" class="edge">
<title>PopoverProfilePage&#45;&gt;AppModule</title>
<path fill="none" stroke="#000000" d="M2456,-122.0511C2456,-136.373 2456,-154 2456,-154 2456,-154 2269.7288,-154 2269.7288,-154"/>
<polygon fill="#000000" stroke="#000000" points="2269.7288,-150.5001 2259.7288,-154 2269.7287,-157.5001 2269.7288,-150.5001"/>
</g>
<!-- UpdateImageProfilePage -->
<g id="node12" class="node">
<title>UpdateImageProfilePage</title>
<polygon fill="#ffffb3" stroke="#000000" points="2374.2185,-122 2217.7815,-122 2217.7815,-86 2374.2185,-86 2374.2185,-122"/>
<text text-anchor="middle" x="2296" y="-99.8" font-family="Times,serif" font-size="14.00" fill="#000000">UpdateImageProfilePage</text>
</g>
<!-- UpdateImageProfilePage&#45;&gt;AppModule -->
<g id="edge12" class="edge">
<title>UpdateImageProfilePage&#45;&gt;AppModule</title>
<path fill="none" stroke="#000000" d="M2238.7346,-122.1061C2238.7346,-122.1061 2238.7346,-140.991 2238.7346,-140.991"/>
<polygon fill="#000000" stroke="#000000" points="2235.2346,-140.9909 2238.7346,-150.991 2242.2346,-140.991 2235.2346,-140.9909"/>
</g>
<!-- AutosizeDirective -->
<g id="node13" class="node">
<title>AutosizeDirective</title>
<polygon fill="#ffffb3" stroke="#000000" points="2199.8445,-122 2082.1555,-122 2082.1555,-86 2199.8445,-86 2199.8445,-122"/>
<text text-anchor="middle" x="2141" y="-99.8" font-family="Times,serif" font-size="14.00" fill="#000000">AutosizeDirective</text>
</g>
<!-- AutosizeDirective&#45;&gt;AppModule -->
<g id="edge13" class="edge">
<title>AutosizeDirective&#45;&gt;AppModule</title>
<path fill="none" stroke="#000000" d="M2188.047,-122.1061C2188.047,-122.1061 2188.047,-140.991 2188.047,-140.991"/>
<polygon fill="#000000" stroke="#000000" points="2184.5471,-140.9909 2188.047,-150.991 2191.5471,-140.991 2184.5471,-140.9909"/>
</g>
<!-- IonicApp  -->
<g id="node15" class="node">
<title>IonicApp </title>
<polygon fill="#80b1d3" stroke="#000000" points="2254.3734,-252 2181.6266,-252 2181.6266,-216 2254.3734,-216 2254.3734,-252"/>
<text text-anchor="middle" x="2218" y="-229.8" font-family="Times,serif" font-size="14.00" fill="#000000">IonicApp </text>
</g>
<!-- AppModule&#45;&gt;IonicApp  -->
<g id="edge14" class="edge">
<title>AppModule&#45;&gt;IonicApp </title>
<path fill="none" stroke="#000000" stroke-dasharray="1,5" d="M2218,-187.1061C2218,-187.1061 2218,-205.991 2218,-205.991"/>
<polygon fill="#000000" stroke="#000000" points="2214.5001,-205.9909 2218,-215.991 2221.5001,-205.991 2214.5001,-205.9909"/>
</g>
<!-- DatabaseProvider -->
<g id="node16" class="node">
<title>DatabaseProvider</title>
<ellipse fill="#fdb462" stroke="#000000" cx="1978" cy="-104" rx="79.8527" ry="18"/>
<text text-anchor="middle" x="1978" y="-99.8" font-family="Times,serif" font-size="14.00" fill="#000000">DatabaseProvider</text>
</g>
<!-- DatabaseProvider&#45;&gt;AppModule -->
<g id="edge15" class="edge">
<title>DatabaseProvider&#45;&gt;AppModule</title>
<path fill="none" stroke="#000000" d="M1978,-122.0511C1978,-136.373 1978,-154 1978,-154 1978,-154 2166.1952,-154 2166.1952,-154"/>
<polygon fill="#000000" stroke="#000000" points="2166.1952,-157.5001 2176.1952,-154 2166.1952,-150.5001 2166.1952,-157.5001"/>
</g>
<!-- AuthService -->
<g id="node17" class="node">
<title>AuthService</title>
<ellipse fill="#fdb462" stroke="#000000" cx="1821" cy="-104" rx="59.1083" ry="18"/>
<text text-anchor="middle" x="1821" y="-99.8" font-family="Times,serif" font-size="14.00" fill="#000000">AuthService</text>
</g>
<!-- AuthService&#45;&gt;AppModule -->
<g id="edge16" class="edge">
<title>AuthService&#45;&gt;AppModule</title>
<path fill="none" stroke="#000000" d="M1821,-122.2396C1821,-137.5706 1821,-157 1821,-157 1821,-157 2166.2644,-157 2166.2644,-157"/>
<polygon fill="#000000" stroke="#000000" points="2166.2644,-160.5001 2176.2644,-157 2166.2644,-153.5001 2166.2644,-160.5001"/>
</g>
<!-- ChatPresenceHandler -->
<g id="node18" class="node">
<title>ChatPresenceHandler</title>
<ellipse fill="#fdb462" stroke="#000000" cx="1649" cy="-104" rx="94.88" ry="18"/>
<text text-anchor="middle" x="1649" y="-99.8" font-family="Times,serif" font-size="14.00" fill="#000000">ChatPresenceHandler</text>
</g>
<!-- ChatPresenceHandler&#45;&gt;AppModule -->
<g id="edge17" class="edge">
<title>ChatPresenceHandler&#45;&gt;AppModule</title>
<path fill="none" stroke="#000000" d="M1649,-122.027C1649,-138.3976 1649,-160 1649,-160 1649,-160 2166.1601,-160 2166.1601,-160"/>
<polygon fill="#000000" stroke="#000000" points="2166.1601,-163.5001 2176.1601,-160 2166.16,-156.5001 2166.1601,-163.5001"/>
</g>
<!-- NavProxyService -->
<g id="node19" class="node">
<title>NavProxyService</title>
<ellipse fill="#fdb462" stroke="#000000" cx="1457" cy="-104" rx="79.2942" ry="18"/>
<text text-anchor="middle" x="1457" y="-99.8" font-family="Times,serif" font-size="14.00" fill="#000000">NavProxyService</text>
</g>
<!-- NavProxyService&#45;&gt;AppModule -->
<g id="edge18" class="edge">
<title>NavProxyService&#45;&gt;AppModule</title>
<path fill="none" stroke="#000000" d="M1457,-122.0225C1457,-139.3734 1457,-163 1457,-163 1457,-163 2166.2735,-163 2166.2735,-163"/>
<polygon fill="#000000" stroke="#000000" points="2166.2736,-166.5001 2176.2735,-163 2166.2735,-159.5001 2166.2736,-166.5001"/>
</g>
<!-- MessagingService -->
<g id="node20" class="node">
<title>MessagingService</title>
<ellipse fill="#fdb462" stroke="#000000" cx="1278" cy="-104" rx="81.6596" ry="18"/>
<text text-anchor="middle" x="1278" y="-99.8" font-family="Times,serif" font-size="14.00" fill="#000000">MessagingService</text>
</g>
<!-- MessagingService&#45;&gt;AppModule -->
<g id="edge19" class="edge">
<title>MessagingService&#45;&gt;AppModule</title>
<path fill="none" stroke="#000000" d="M1278,-122.2667C1278,-140.5552 1278,-166 1278,-166 1278,-166 2166.0908,-166 2166.0908,-166"/>
<polygon fill="#000000" stroke="#000000" points="2166.0908,-169.5001 2176.0908,-166 2166.0907,-162.5001 2166.0908,-169.5001"/>
</g>
<!-- UserService -->
<g id="node21" class="node">
<title>UserService</title>
<ellipse fill="#fdb462" stroke="#000000" cx="1120" cy="-104" rx="58.4415" ry="18"/>
<text text-anchor="middle" x="1120" y="-99.8" font-family="Times,serif" font-size="14.00" fill="#000000">UserService</text>
</g>
<!-- UserService&#45;&gt;AppModule -->
<g id="edge20" class="edge">
<title>UserService&#45;&gt;AppModule</title>
<path fill="none" stroke="#000000" d="M1120,-122.1061C1120,-141.3391 1120,-169 1120,-169 1120,-169 2166.2979,-169 2166.2979,-169"/>
<polygon fill="#000000" stroke="#000000" points="2166.2979,-172.5001 2176.2979,-169 2166.2978,-165.5001 2166.2979,-172.5001"/>
</g>
<!-- UploadService -->
<g id="node22" class="node">
<title>UploadService</title>
<ellipse fill="#fdb462" stroke="#000000" cx="975" cy="-104" rx="68.3382" ry="18"/>
<text text-anchor="middle" x="975" y="-99.8" font-family="Times,serif" font-size="14.00" fill="#000000">UploadService</text>
</g>
<!-- UploadService&#45;&gt;AppModule -->
<g id="edge21" class="edge">
<title>UploadService&#45;&gt;AppModule</title>
<path fill="none" stroke="#000000" d="M975,-122.2228C975,-142.3652 975,-172 975,-172 975,-172 2166.2877,-172 2166.2877,-172"/>
<polygon fill="#000000" stroke="#000000" points="2166.2878,-175.5001 2176.2877,-172 2166.2877,-168.5001 2166.2878,-175.5001"/>
</g>
<!-- ChatManager -->
<g id="node23" class="node">
<title>ChatManager</title>
<ellipse fill="#fdb462" stroke="#000000" cx="825" cy="-104" rx="63.6832" ry="18"/>
<text text-anchor="middle" x="825" y="-99.8" font-family="Times,serif" font-size="14.00" fill="#000000">ChatManager</text>
</g>
<!-- ChatManager&#45;&gt;AppModule -->
<g id="edge22" class="edge">
<title>ChatManager&#45;&gt;AppModule</title>
<path fill="none" stroke="#000000" d="M825,-122.2843C825,-143.3211 825,-175 825,-175 825,-175 2166.3103,-175 2166.3103,-175"/>
<polygon fill="#000000" stroke="#000000" points="2166.3103,-178.5001 2176.3103,-175 2166.3102,-171.5001 2166.3103,-178.5001"/>
</g>
<!-- ChatConversationsHandler -->
<g id="node24" class="node">
<title>ChatConversationsHandler</title>
<ellipse fill="#fdb462" stroke="#000000" cx="628" cy="-104" rx="115.7503" ry="18"/>
<text text-anchor="middle" x="628" y="-99.8" font-family="Times,serif" font-size="14.00" fill="#000000">ChatConversationsHandler</text>
</g>
<!-- ChatConversationsHandler&#45;&gt;AppModule -->
<g id="edge23" class="edge">
<title>ChatConversationsHandler&#45;&gt;AppModule</title>
<path fill="none" stroke="#000000" d="M628,-122.2921C628,-144.2057 628,-178 628,-178 628,-178 2166.2886,-178 2166.2886,-178"/>
<polygon fill="#000000" stroke="#000000" points="2166.2887,-181.5001 2176.2886,-178 2166.2886,-174.5001 2166.2887,-181.5001"/>
</g>
<!-- ChatConversationHandler -->
<g id="node25" class="node">
<title>ChatConversationHandler</title>
<ellipse fill="#fdb462" stroke="#000000" cx="383" cy="-104" rx="111.7391" ry="18"/>
<text text-anchor="middle" x="383" y="-99.8" font-family="Times,serif" font-size="14.00" fill="#000000">ChatConversationHandler</text>
</g>
<!-- ChatConversationHandler&#45;&gt;AppModule -->
<g id="edge24" class="edge">
<title>ChatConversationHandler&#45;&gt;AppModule</title>
<path fill="none" stroke="#000000" d="M383,-122.2479C383,-145.0179 383,-181 383,-181 383,-181 2166.2257,-181 2166.2257,-181"/>
<polygon fill="#000000" stroke="#000000" points="2166.2257,-184.5001 2176.2257,-181 2166.2257,-177.5001 2166.2257,-184.5001"/>
</g>
<!-- ChatContactsSynchronizer -->
<g id="node26" class="node">
<title>ChatContactsSynchronizer</title>
<ellipse fill="#fdb462" stroke="#000000" cx="139" cy="-104" rx="114.6063" ry="18"/>
<text text-anchor="middle" x="139" y="-99.8" font-family="Times,serif" font-size="14.00" fill="#000000">ChatContactsSynchronizer</text>
</g>
<!-- ChatContactsSynchronizer&#45;&gt;AppModule -->
<g id="edge25" class="edge">
<title>ChatContactsSynchronizer&#45;&gt;AppModule</title>
<path fill="none" stroke="#000000" d="M139,-122.1532C139,-145.7566 139,-184 139,-184 139,-184 2166.0014,-184 2166.0014,-184"/>
<polygon fill="#000000" stroke="#000000" points="2166.0014,-187.5001 2176.0014,-184 2166.0013,-180.5001 2166.0014,-187.5001"/>
</g>
</g>
</svg>
