<?xml version="1.0" encoding="UTF-8" standalone="no"?>
<!DOCTYPE svg PUBLIC "-//W3C//DTD SVG 1.1//EN"
 "http://www.w3.org/Graphics/SVG/1.1/DTD/svg11.dtd">
<!-- Generated by graphviz version 2.40.1 (20161225.0304)
 -->
<!-- Title: dependencies Pages: 1 -->
<svg width="5418pt" height="284pt"
 viewBox="0.00 0.00 5418.00 284.00" xmlns="http://www.w3.org/2000/svg" xmlns:xlink="http://www.w3.org/1999/xlink">
<g id="graph0" class="graph" transform="scale(1 1) rotate(0) translate(4 280)">
<title>dependencies</title>
<polygon fill="#ffffff" stroke="transparent" points="-4,4 -4,-280 5414,-280 5414,4 -4,4"/>
<text text-anchor="start" x="2684.0091" y="-42.4" font-family="sans-serif" font-weight="bold" font-size="14.00" fill="#000000">Legend</text>
<polygon fill="#ffffb3" stroke="transparent" points="2471,-10 2471,-30 2491,-30 2491,-10 2471,-10"/>
<text text-anchor="start" x="2494.629" y="-15.4" font-family="sans-serif" font-size="14.00" fill="#000000"> &#160;Declarations</text>
<polygon fill="#8dd3c7" stroke="transparent" points="2584,-10 2584,-30 2604,-30 2604,-10 2584,-10"/>
<text text-anchor="start" x="2607.7251" y="-15.4" font-family="sans-serif" font-size="14.00" fill="#000000"> &#160;Module</text>
<polygon fill="#80b1d3" stroke="transparent" points="2670,-10 2670,-30 2690,-30 2690,-10 2670,-10"/>
<text text-anchor="start" x="2693.7812" y="-15.4" font-family="sans-serif" font-size="14.00" fill="#000000"> &#160;Bootstrap</text>
<polygon fill="#fdb462" stroke="transparent" points="2767,-10 2767,-30 2787,-30 2787,-10 2767,-10"/>
<text text-anchor="start" x="2790.6732" y="-15.4" font-family="sans-serif" font-size="14.00" fill="#000000"> &#160;Providers</text>
<polygon fill="#fb8072" stroke="transparent" points="2863,-10 2863,-30 2883,-30 2883,-10 2863,-10"/>
<text text-anchor="start" x="2886.7258" y="-15.4" font-family="sans-serif" font-size="14.00" fill="#000000"> &#160;Exports</text>
<g id="clust1" class="cluster">
<title>cluster_AppModule</title>
<polygon fill="none" stroke="#000000" stroke-dasharray="1,5" points="8,-70 8,-268 5402,-268 5402,-70 8,-70"/>
</g>
<g id="clust2" class="cluster">
<title>cluster_AppModule_declarations</title>
<polygon fill="none" stroke="#000000" points="3009,-78 3009,-130 5394,-130 5394,-78 3009,-78"/>
</g>
<g id="clust23" class="cluster">
<title>cluster_AppModule_bootstrap</title>
<polygon fill="none" stroke="#000000" points="3145,-208 3145,-260 3233,-260 3233,-208 3145,-208"/>
</g>
<g id="clust24" class="cluster">
<title>cluster_AppModule_providers</title>
<polygon fill="none" stroke="#000000" points="16,-78 16,-130 3001,-130 3001,-78 16,-78"/>
</g>
<!-- ArchivedConversationsPage -->
<g id="node1" class="node">
<title>ArchivedConversationsPage</title>
<polygon fill="#ffffb3" stroke="#000000" points="5385.896,-122 5210.104,-122 5210.104,-86 5385.896,-86 5385.896,-122"/>
<text text-anchor="middle" x="5298" y="-99.8" font-family="Times,serif" font-size="14.00" fill="#000000">ArchivedConversationsPage</text>
</g>
<!-- AppModule -->
<g id="node19" class="node">
<title>AppModule</title>
<polygon fill="#8dd3c7" stroke="#000000" points="3230.6571,-187 3227.6571,-191 3206.6571,-191 3203.6571,-187 3147.3429,-187 3147.3429,-151 3230.6571,-151 3230.6571,-187"/>
<text text-anchor="middle" x="3189" y="-164.8" font-family="Times,serif" font-size="14.00" fill="#000000">AppModule</text>
</g>
<!-- ArchivedConversationsPage&#45;&gt;AppModule -->
<g id="edge1" class="edge">
<title>ArchivedConversationsPage&#45;&gt;AppModule</title>
<path fill="none" stroke="#000000" d="M5298,-122.3802C5298,-146.2785 5298,-185 5298,-185 5298,-185 3241.1281,-185 3241.1281,-185"/>
<polygon fill="#000000" stroke="#000000" points="3241.1281,-181.5001 3231.1281,-185 3241.128,-188.5001 3241.1281,-181.5001"/>
</g>
<!-- AutosizeDirective -->
<g id="node2" class="node">
<title>AutosizeDirective</title>
<polygon fill="#ffffb3" stroke="#000000" points="5191.8445,-122 5074.1555,-122 5074.1555,-86 5191.8445,-86 5191.8445,-122"/>
<text text-anchor="middle" x="5133" y="-99.8" font-family="Times,serif" font-size="14.00" fill="#000000">AutosizeDirective</text>
</g>
<!-- AutosizeDirective&#45;&gt;AppModule -->
<g id="edge2" class="edge">
<title>AutosizeDirective&#45;&gt;AppModule</title>
<path fill="none" stroke="#000000" d="M5133,-122.3228C5133,-145.6602 5133,-183 5133,-183 5133,-183 3240.9557,-183 3240.9557,-183"/>
<polygon fill="#000000" stroke="#000000" points="3240.9557,-179.5001 3230.9557,-183 3240.9557,-186.5001 3240.9557,-179.5001"/>
</g>
<!-- DettaglioConversazionePage -->
<g id="node3" class="node">
<title>DettaglioConversazionePage</title>
<polygon fill="#ffffb3" stroke="#000000" points="5056.0015,-122 4877.9985,-122 4877.9985,-86 5056.0015,-86 5056.0015,-122"/>
<text text-anchor="middle" x="4967" y="-99.8" font-family="Times,serif" font-size="14.00" fill="#000000">DettaglioConversazionePage</text>
</g>
<!-- DettaglioConversazionePage&#45;&gt;AppModule -->
<g id="edge3" class="edge">
<title>DettaglioConversazionePage&#45;&gt;AppModule</title>
<path fill="none" stroke="#000000" d="M4967,-122.2479C4967,-145.0179 4967,-181 4967,-181 4967,-181 3240.7639,-181 3240.7639,-181"/>
<polygon fill="#000000" stroke="#000000" points="3240.7639,-177.5001 3230.7639,-181 3240.7639,-184.5001 3240.7639,-177.5001"/>
</g>
<!-- InfoAdvancedPage -->
<g id="node4" class="node">
<title>InfoAdvancedPage</title>
<polygon fill="#ffffb3" stroke="#000000" points="4859.7837,-122 4736.2163,-122 4736.2163,-86 4859.7837,-86 4859.7837,-122"/>
<text text-anchor="middle" x="4798" y="-99.8" font-family="Times,serif" font-size="14.00" fill="#000000">InfoAdvancedPage</text>
</g>
<!-- InfoAdvancedPage&#45;&gt;AppModule -->
<g id="edge4" class="edge">
<title>InfoAdvancedPage&#45;&gt;AppModule</title>
<path fill="none" stroke="#000000" d="M4798,-122.1554C4798,-144.3519 4798,-179 4798,-179 4798,-179 3240.7991,-179 3240.7991,-179"/>
<polygon fill="#000000" stroke="#000000" points="3240.7991,-175.5001 3230.7991,-179 3240.799,-182.5001 3240.7991,-175.5001"/>
</g>
<!-- InfoConversationPage -->
<g id="node5" class="node">
<title>InfoConversationPage</title>
<polygon fill="#ffffb3" stroke="#000000" points="4718.6853,-122 4577.3147,-122 4577.3147,-86 4718.6853,-86 4718.6853,-122"/>
<text text-anchor="middle" x="4648" y="-99.8" font-family="Times,serif" font-size="14.00" fill="#000000">InfoConversationPage</text>
</g>
<!-- InfoConversationPage&#45;&gt;AppModule -->
<g id="edge5" class="edge">
<title>InfoConversationPage&#45;&gt;AppModule</title>
<path fill="none" stroke="#000000" d="M4648,-122.0449C4648,-143.6623 4648,-177 4648,-177 4648,-177 3240.7024,-177 3240.7024,-177"/>
<polygon fill="#000000" stroke="#000000" points="3240.7024,-173.5001 3230.7024,-177 3240.7023,-180.5001 3240.7024,-173.5001"/>
</g>
<!-- InfoMessagePage -->
<g id="node6" class="node">
<title>InfoMessagePage</title>
<polygon fill="#ffffb3" stroke="#000000" points="4559.5116,-122 4444.4884,-122 4444.4884,-86 4559.5116,-86 4559.5116,-122"/>
<text text-anchor="middle" x="4502" y="-99.8" font-family="Times,serif" font-size="14.00" fill="#000000">InfoMessagePage</text>
</g>
<!-- InfoMessagePage&#45;&gt;AppModule -->
<g id="edge6" class="edge">
<title>InfoMessagePage&#45;&gt;AppModule</title>
<path fill="none" stroke="#000000" d="M4502,-122.2843C4502,-143.3211 4502,-175 4502,-175 4502,-175 3240.8307,-175 3240.8307,-175"/>
<polygon fill="#000000" stroke="#000000" points="3240.8307,-171.5001 3230.8307,-175 3240.8306,-178.5001 3240.8307,-171.5001"/>
</g>
<!-- InfoUserPage -->
<g id="node7" class="node">
<title>InfoUserPage</title>
<polygon fill="#ffffb3" stroke="#000000" points="4426.4594,-122 4333.5406,-122 4333.5406,-86 4426.4594,-86 4426.4594,-122"/>
<text text-anchor="middle" x="4380" y="-99.8" font-family="Times,serif" font-size="14.00" fill="#000000">InfoUserPage</text>
</g>
<!-- InfoUserPage&#45;&gt;AppModule -->
<g id="edge7" class="edge">
<title>InfoUserPage&#45;&gt;AppModule</title>
<path fill="none" stroke="#000000" d="M4380,-122.1289C4380,-142.5724 4380,-173 4380,-173 4380,-173 3240.69,-173 3240.69,-173"/>
<polygon fill="#000000" stroke="#000000" points="3240.69,-169.5001 3230.69,-173 3240.6899,-176.5001 3240.69,-169.5001"/>
</g>
<!-- ListaConversazioniPage -->
<g id="node8" class="node">
<title>ListaConversazioniPage</title>
<polygon fill="#ffffb3" stroke="#000000" points="4315.0716,-122 4162.9284,-122 4162.9284,-86 4315.0716,-86 4315.0716,-122"/>
<text text-anchor="middle" x="4239" y="-99.8" font-family="Times,serif" font-size="14.00" fill="#000000">ListaConversazioniPage</text>
</g>
<!-- ListaConversazioniPage&#45;&gt;AppModule -->
<g id="edge8" class="edge">
<title>ListaConversazioniPage&#45;&gt;AppModule</title>
<path fill="none" stroke="#000000" d="M4239,-122.308C4239,-142.1455 4239,-171 4239,-171 4239,-171 3240.8092,-171 3240.8092,-171"/>
<polygon fill="#000000" stroke="#000000" points="3240.8092,-167.5001 3230.8092,-171 3240.8092,-174.5001 3240.8092,-167.5001"/>
</g>
<!-- LoginPage -->
<g id="node9" class="node">
<title>LoginPage</title>
<polygon fill="#ffffb3" stroke="#000000" points="4145.1558,-122 4068.8442,-122 4068.8442,-86 4145.1558,-86 4145.1558,-122"/>
<text text-anchor="middle" x="4107" y="-99.8" font-family="Times,serif" font-size="14.00" fill="#000000">LoginPage</text>
</g>
<!-- LoginPage&#45;&gt;AppModule -->
<g id="edge9" class="edge">
<title>LoginPage&#45;&gt;AppModule</title>
<path fill="none" stroke="#000000" d="M4107,-122.1686C4107,-141.0898 4107,-168 4107,-168 4107,-168 3240.83,-168 3240.83,-168"/>
<polygon fill="#000000" stroke="#000000" points="3240.83,-164.5001 3230.83,-168 3240.83,-171.5001 3240.83,-164.5001"/>
</g>
<!-- MyApp -->
<g id="node10" class="node">
<title>MyApp</title>
<polygon fill="#ffffb3" stroke="#000000" points="4050.5529,-122 3991.4471,-122 3991.4471,-86 4050.5529,-86 4050.5529,-122"/>
<text text-anchor="middle" x="4021" y="-99.8" font-family="Times,serif" font-size="14.00" fill="#000000">MyApp</text>
</g>
<!-- MyApp&#45;&gt;AppModule -->
<g id="edge10" class="edge">
<title>MyApp&#45;&gt;AppModule</title>
<path fill="none" stroke="#000000" d="M4021,-122.2667C4021,-140.5552 4021,-166 4021,-166 4021,-166 3240.8292,-166 3240.8292,-166"/>
<polygon fill="#000000" stroke="#000000" points="3240.8292,-162.5001 3230.8292,-166 3240.8292,-169.5001 3240.8292,-162.5001"/>
</g>
<!-- PlaceholderPage -->
<g id="node11" class="node">
<title>PlaceholderPage</title>
<polygon fill="#ffffb3" stroke="#000000" points="3973.795,-122 3864.205,-122 3864.205,-86 3973.795,-86 3973.795,-122"/>
<text text-anchor="middle" x="3919" y="-99.8" font-family="Times,serif" font-size="14.00" fill="#000000">PlaceholderPage</text>
</g>
<!-- PlaceholderPage&#45;&gt;AppModule -->
<g id="edge11" class="edge">
<title>PlaceholderPage&#45;&gt;AppModule</title>
<path fill="none" stroke="#000000" d="M3919,-122.002C3919,-139.6754 3919,-164 3919,-164 3919,-164 3240.8699,-164 3240.8699,-164"/>
<polygon fill="#000000" stroke="#000000" points="3240.8699,-160.5001 3230.8699,-164 3240.8699,-167.5001 3240.8699,-160.5001"/>
</g>
<!-- PopoverPage -->
<g id="node12" class="node">
<title>PopoverPage</title>
<polygon fill="#ffffb3" stroke="#000000" points="3845.8697,-122 3756.1303,-122 3756.1303,-86 3845.8697,-86 3845.8697,-122"/>
<text text-anchor="middle" x="3801" y="-99.8" font-family="Times,serif" font-size="14.00" fill="#000000">PopoverPage</text>
</g>
<!-- PopoverPage&#45;&gt;AppModule -->
<g id="edge12" class="edge">
<title>PopoverPage&#45;&gt;AppModule</title>
<path fill="none" stroke="#000000" d="M3801,-122.0336C3801,-139.0597 3801,-162 3801,-162 3801,-162 3241.0652,-162 3241.0652,-162"/>
<polygon fill="#000000" stroke="#000000" points="3241.0653,-158.5001 3231.0652,-162 3241.0652,-165.5001 3241.0653,-158.5001"/>
</g>
<!-- PopoverProfilePage -->
<g id="node13" class="node">
<title>PopoverProfilePage</title>
<polygon fill="#ffffb3" stroke="#000000" points="3737.9692,-122 3610.0308,-122 3610.0308,-86 3737.9692,-86 3737.9692,-122"/>
<text text-anchor="middle" x="3674" y="-99.8" font-family="Times,serif" font-size="14.00" fill="#000000">PopoverProfilePage</text>
</g>
<!-- PopoverProfilePage&#45;&gt;AppModule -->
<g id="edge13" class="edge">
<title>PopoverProfilePage&#45;&gt;AppModule</title>
<path fill="none" stroke="#000000" d="M3674,-122.027C3674,-138.3976 3674,-160 3674,-160 3674,-160 3240.7706,-160 3240.7706,-160"/>
<polygon fill="#000000" stroke="#000000" points="3240.7706,-156.5001 3230.7706,-160 3240.7706,-163.5001 3240.7706,-156.5001"/>
</g>
<!-- ProfilePage -->
<g id="node14" class="node">
<title>ProfilePage</title>
<polygon fill="#ffffb3" stroke="#000000" points="3591.812,-122 3510.188,-122 3510.188,-86 3591.812,-86 3591.812,-122"/>
<text text-anchor="middle" x="3551" y="-99.8" font-family="Times,serif" font-size="14.00" fill="#000000">ProfilePage</text>
</g>
<!-- ProfilePage&#45;&gt;AppModule -->
<g id="edge14" class="edge">
<title>ProfilePage&#45;&gt;AppModule</title>
<path fill="none" stroke="#000000" d="M3551,-122.2819C3551,-137.9478 3551,-158 3551,-158 3551,-158 3240.8796,-158 3240.8796,-158"/>
<polygon fill="#000000" stroke="#000000" points="3240.8797,-154.5001 3230.8796,-158 3240.8796,-161.5001 3240.8797,-154.5001"/>
</g>
<!-- RegisterPage -->
<g id="node15" class="node">
<title>RegisterPage</title>
<polygon fill="#ffffb3" stroke="#000000" points="3491.8641,-122 3402.1359,-122 3402.1359,-86 3491.8641,-86 3491.8641,-122"/>
<text text-anchor="middle" x="3447" y="-99.8" font-family="Times,serif" font-size="14.00" fill="#000000">RegisterPage</text>
</g>
<!-- RegisterPage&#45;&gt;AppModule -->
<g id="edge15" class="edge">
<title>RegisterPage&#45;&gt;AppModule</title>
<path fill="none" stroke="#000000" d="M3447,-122.1871C3447,-137.1824 3447,-156 3447,-156 3447,-156 3240.7389,-156 3240.7389,-156"/>
<polygon fill="#000000" stroke="#000000" points="3240.7389,-152.5001 3230.7389,-156 3240.7389,-159.5001 3240.7389,-152.5001"/>
</g>
<!-- ResetpwdPage -->
<g id="node16" class="node">
<title>ResetpwdPage</title>
<polygon fill="#ffffb3" stroke="#000000" points="3384.4203,-122 3285.5797,-122 3285.5797,-86 3384.4203,-86 3384.4203,-122"/>
<text text-anchor="middle" x="3335" y="-99.8" font-family="Times,serif" font-size="14.00" fill="#000000">ResetpwdPage</text>
</g>
<!-- ResetpwdPage&#45;&gt;AppModule -->
<g id="edge16" class="edge">
<title>ResetpwdPage&#45;&gt;AppModule</title>
<path fill="none" stroke="#000000" d="M3335,-122.0511C3335,-136.373 3335,-154 3335,-154 3335,-154 3240.8377,-154 3240.8377,-154"/>
<polygon fill="#000000" stroke="#000000" points="3240.8378,-150.5001 3230.8377,-154 3240.8377,-157.5001 3240.8378,-150.5001"/>
</g>
<!-- UpdateImageProfilePage -->
<g id="node17" class="node">
<title>UpdateImageProfilePage</title>
<polygon fill="#ffffb3" stroke="#000000" points="3267.2185,-122 3110.7815,-122 3110.7815,-86 3267.2185,-86 3267.2185,-122"/>
<text text-anchor="middle" x="3189" y="-99.8" font-family="Times,serif" font-size="14.00" fill="#000000">UpdateImageProfilePage</text>
</g>
<!-- UpdateImageProfilePage&#45;&gt;AppModule -->
<g id="edge17" class="edge">
<title>UpdateImageProfilePage&#45;&gt;AppModule</title>
<path fill="none" stroke="#000000" d="M3189,-122.1061C3189,-122.1061 3189,-140.991 3189,-140.991"/>
<polygon fill="#000000" stroke="#000000" points="3185.5001,-140.9909 3189,-150.991 3192.5001,-140.991 3185.5001,-140.9909"/>
</g>
<!-- UsersPage -->
<g id="node18" class="node">
<title>UsersPage</title>
<polygon fill="#ffffb3" stroke="#000000" points="3092.5828,-122 3017.4172,-122 3017.4172,-86 3092.5828,-86 3092.5828,-122"/>
<text text-anchor="middle" x="3055" y="-99.8" font-family="Times,serif" font-size="14.00" fill="#000000">UsersPage</text>
</g>
<!-- UsersPage&#45;&gt;AppModule -->
<g id="edge18" class="edge">
<title>UsersPage&#45;&gt;AppModule</title>
<path fill="none" stroke="#000000" d="M3055,-122.0511C3055,-136.373 3055,-154 3055,-154 3055,-154 3137.3361,-154 3137.3361,-154"/>
<polygon fill="#000000" stroke="#000000" points="3137.3361,-157.5001 3147.3361,-154 3137.3361,-150.5001 3137.3361,-157.5001"/>
</g>
<!-- IonicApp  -->
<g id="node20" class="node">
<title>IonicApp </title>
<polygon fill="#80b1d3" stroke="#000000" points="3225.3734,-252 3152.6266,-252 3152.6266,-216 3225.3734,-216 3225.3734,-252"/>
<text text-anchor="middle" x="3189" y="-229.8" font-family="Times,serif" font-size="14.00" fill="#000000">IonicApp </text>
</g>
<!-- AppModule&#45;&gt;IonicApp  -->
<g id="edge19" class="edge">
<title>AppModule&#45;&gt;IonicApp </title>
<path fill="none" stroke="#000000" stroke-dasharray="1,5" d="M3189,-187.1061C3189,-187.1061 3189,-205.991 3189,-205.991"/>
<polygon fill="#000000" stroke="#000000" points="3185.5001,-205.9909 3189,-215.991 3192.5001,-205.991 3185.5001,-205.9909"/>
</g>
<!-- AppConfigProvider -->
<g id="node21" class="node">
<title>AppConfigProvider</title>
<ellipse fill="#fdb462" stroke="#000000" cx="2905" cy="-104" rx="87.9858" ry="18"/>
<text text-anchor="middle" x="2905" y="-99.8" font-family="Times,serif" font-size="14.00" fill="#000000">AppConfigProvider</text>
</g>
<!-- AppConfigProvider&#45;&gt;AppModule -->
<g id="edge20" class="edge">
<title>AppConfigProvider&#45;&gt;AppModule</title>
<path fill="none" stroke="#000000" d="M2905,-122.1871C2905,-137.1824 2905,-156 2905,-156 2905,-156 3137.0948,-156 3137.0948,-156"/>
<polygon fill="#000000" stroke="#000000" points="3137.0949,-159.5001 3147.0948,-156 3137.0948,-152.5001 3137.0949,-159.5001"/>
</g>
<!-- AuthService -->
<g id="node22" class="node">
<title>AuthService</title>
<ellipse fill="#fdb462" stroke="#000000" cx="2740" cy="-104" rx="59.1083" ry="18"/>
<text text-anchor="middle" x="2740" y="-99.8" font-family="Times,serif" font-size="14.00" fill="#000000">AuthService</text>
</g>
<!-- AuthService&#45;&gt;AppModule -->
<g id="edge21" class="edge">
<title>AuthService&#45;&gt;AppModule</title>
<path fill="none" stroke="#000000" d="M2740,-122.2819C2740,-137.9478 2740,-158 2740,-158 2740,-158 3137.1624,-158 3137.1624,-158"/>
<polygon fill="#000000" stroke="#000000" points="3137.1624,-161.5001 3147.1624,-158 3137.1623,-154.5001 3137.1624,-161.5001"/>
</g>
<!-- ChatArchivedConversationsHandler -->
<g id="node23" class="node">
<title>ChatArchivedConversationsHandler</title>
<ellipse fill="#fdb462" stroke="#000000" cx="2511" cy="-104" rx="151.6075" ry="18"/>
<text text-anchor="middle" x="2511" y="-99.8" font-family="Times,serif" font-size="14.00" fill="#000000">ChatArchivedConversationsHandler</text>
</g>
<!-- ChatArchivedConversationsHandler&#45;&gt;AppModule -->
<g id="edge22" class="edge">
<title>ChatArchivedConversationsHandler&#45;&gt;AppModule</title>
<path fill="none" stroke="#000000" d="M2511,-122.027C2511,-138.3976 2511,-160 2511,-160 2511,-160 3137.0997,-160 3137.0997,-160"/>
<polygon fill="#000000" stroke="#000000" points="3137.0998,-163.5001 3147.0997,-160 3137.0997,-156.5001 3137.0998,-163.5001"/>
</g>
<!-- ChatContactsSynchronizer -->
<g id="node24" class="node">
<title>ChatContactsSynchronizer</title>
<ellipse fill="#fdb462" stroke="#000000" cx="2227" cy="-104" rx="114.6063" ry="18"/>
<text text-anchor="middle" x="2227" y="-99.8" font-family="Times,serif" font-size="14.00" fill="#000000">ChatContactsSynchronizer</text>
</g>
<!-- ChatContactsSynchronizer&#45;&gt;AppModule -->
<g id="edge23" class="edge">
<title>ChatContactsSynchronizer&#45;&gt;AppModule</title>
<path fill="none" stroke="#000000" d="M2227,-122.0336C2227,-139.0597 2227,-162 2227,-162 2227,-162 3137.0455,-162 3137.0455,-162"/>
<polygon fill="#000000" stroke="#000000" points="3137.0455,-165.5001 3147.0455,-162 3137.0454,-158.5001 3137.0455,-165.5001"/>
</g>
<!-- ChatConversationHandler -->
<g id="node25" class="node">
<title>ChatConversationHandler</title>
<ellipse fill="#fdb462" stroke="#000000" cx="1983" cy="-104" rx="111.7391" ry="18"/>
<text text-anchor="middle" x="1983" y="-99.8" font-family="Times,serif" font-size="14.00" fill="#000000">ChatConversationHandler</text>
</g>
<!-- ChatConversationHandler&#45;&gt;AppModule -->
<g id="edge24" class="edge">
<title>ChatConversationHandler&#45;&gt;AppModule</title>
<path fill="none" stroke="#000000" d="M1983,-122.002C1983,-139.6754 1983,-164 1983,-164 1983,-164 3137.1365,-164 3137.1365,-164"/>
<polygon fill="#000000" stroke="#000000" points="3137.1366,-167.5001 3147.1365,-164 3137.1365,-160.5001 3137.1366,-167.5001"/>
</g>
<!-- ChatConversationsHandler -->
<g id="node26" class="node">
<title>ChatConversationsHandler</title>
<ellipse fill="#fdb462" stroke="#000000" cx="1738" cy="-104" rx="115.7503" ry="18"/>
<text text-anchor="middle" x="1738" y="-99.8" font-family="Times,serif" font-size="14.00" fill="#000000">ChatConversationsHandler</text>
</g>
<!-- ChatConversationsHandler&#45;&gt;AppModule -->
<g id="edge25" class="edge">
<title>ChatConversationsHandler&#45;&gt;AppModule</title>
<path fill="none" stroke="#000000" d="M1738,-122.2667C1738,-140.5552 1738,-166 1738,-166 1738,-166 3137.1392,-166 3137.1392,-166"/>
<polygon fill="#000000" stroke="#000000" points="3137.1393,-169.5001 3147.1392,-166 3137.1392,-162.5001 3137.1393,-169.5001"/>
</g>
<!-- ChatManager -->
<g id="node27" class="node">
<title>ChatManager</title>
<ellipse fill="#fdb462" stroke="#000000" cx="1541" cy="-104" rx="63.6832" ry="18"/>
<text text-anchor="middle" x="1541" y="-99.8" font-family="Times,serif" font-size="14.00" fill="#000000">ChatManager</text>
</g>
<!-- ChatManager&#45;&gt;AppModule -->
<g id="edge26" class="edge">
<title>ChatManager&#45;&gt;AppModule</title>
<path fill="none" stroke="#000000" d="M1541,-122.1686C1541,-141.0898 1541,-168 1541,-168 1541,-168 3137.0235,-168 3137.0235,-168"/>
<polygon fill="#000000" stroke="#000000" points="3137.0235,-171.5001 3147.0235,-168 3137.0234,-164.5001 3137.0235,-171.5001"/>
</g>
<!-- ChatPresenceHandler -->
<g id="node28" class="node">
<title>ChatPresenceHandler</title>
<ellipse fill="#fdb462" stroke="#000000" cx="1365" cy="-104" rx="94.88" ry="18"/>
<text text-anchor="middle" x="1365" y="-99.8" font-family="Times,serif" font-size="14.00" fill="#000000">ChatPresenceHandler</text>
</g>
<!-- ChatPresenceHandler&#45;&gt;AppModule -->
<g id="edge27" class="edge">
<title>ChatPresenceHandler&#45;&gt;AppModule</title>
<path fill="none" stroke="#000000" d="M1365,-122.308C1365,-142.1455 1365,-171 1365,-171 1365,-171 3137.0381,-171 3137.0381,-171"/>
<polygon fill="#000000" stroke="#000000" points="3137.0381,-174.5001 3147.0381,-171 3137.0381,-167.5001 3137.0381,-174.5001"/>
</g>
<!-- DatabaseProvider -->
<g id="node29" class="node">
<title>DatabaseProvider</title>
<ellipse fill="#fdb462" stroke="#000000" cx="1173" cy="-104" rx="79.8527" ry="18"/>
<text text-anchor="middle" x="1173" y="-99.8" font-family="Times,serif" font-size="14.00" fill="#000000">DatabaseProvider</text>
</g>
<!-- DatabaseProvider&#45;&gt;AppModule -->
<g id="edge28" class="edge">
<title>DatabaseProvider&#45;&gt;AppModule</title>
<path fill="none" stroke="#000000" d="M1173,-122.1289C1173,-142.5724 1173,-173 1173,-173 1173,-173 3136.893,-173 3136.893,-173"/>
<polygon fill="#000000" stroke="#000000" points="3136.893,-176.5001 3146.893,-173 3136.8929,-169.5001 3136.893,-176.5001"/>
</g>
<!-- GroupService -->
<g id="node30" class="node">
<title>GroupService</title>
<ellipse fill="#fdb462" stroke="#000000" cx="1011" cy="-104" rx="64.8273" ry="18"/>
<text text-anchor="middle" x="1011" y="-99.8" font-family="Times,serif" font-size="14.00" fill="#000000">GroupService</text>
</g>
<!-- GroupService&#45;&gt;AppModule -->
<g id="edge29" class="edge">
<title>GroupService&#45;&gt;AppModule</title>
<path fill="none" stroke="#000000" d="M1011,-122.2843C1011,-143.3211 1011,-175 1011,-175 1011,-175 3136.9546,-175 3136.9546,-175"/>
<polygon fill="#000000" stroke="#000000" points="3136.9546,-178.5001 3146.9546,-175 3136.9546,-171.5001 3136.9546,-178.5001"/>
</g>
<!-- MessagingService -->
<g id="node31" class="node">
<title>MessagingService</title>
<ellipse fill="#fdb462" stroke="#000000" cx="847" cy="-104" rx="81.6596" ry="18"/>
<text text-anchor="middle" x="847" y="-99.8" font-family="Times,serif" font-size="14.00" fill="#000000">MessagingService</text>
</g>
<!-- MessagingService&#45;&gt;AppModule -->
<g id="edge30" class="edge">
<title>MessagingService&#45;&gt;AppModule</title>
<path fill="none" stroke="#000000" d="M847,-122.0449C847,-143.6623 847,-177 847,-177 847,-177 3137.106,-177 3137.106,-177"/>
<polygon fill="#000000" stroke="#000000" points="3137.106,-180.5001 3147.106,-177 3137.1059,-173.5001 3137.106,-180.5001"/>
</g>
<!-- NavProxyService -->
<g id="node32" class="node">
<title>NavProxyService</title>
<ellipse fill="#fdb462" stroke="#000000" cx="668" cy="-104" rx="79.2942" ry="18"/>
<text text-anchor="middle" x="668" y="-99.8" font-family="Times,serif" font-size="14.00" fill="#000000">NavProxyService</text>
</g>
<!-- NavProxyService&#45;&gt;AppModule -->
<g id="edge31" class="edge">
<title>NavProxyService&#45;&gt;AppModule</title>
<path fill="none" stroke="#000000" d="M668,-122.1554C668,-144.3519 668,-179 668,-179 668,-179 3137.0864,-179 3137.0864,-179"/>
<polygon fill="#000000" stroke="#000000" points="3137.0865,-182.5001 3147.0864,-179 3137.0864,-175.5001 3137.0865,-182.5001"/>
</g>
<!-- TiledeskConversationProvider -->
<g id="node33" class="node">
<title>TiledeskConversationProvider</title>
<ellipse fill="#fdb462" stroke="#000000" cx="442" cy="-104" rx="129.0733" ry="18"/>
<text text-anchor="middle" x="442" y="-99.8" font-family="Times,serif" font-size="14.00" fill="#000000">TiledeskConversationProvider</text>
</g>
<!-- TiledeskConversationProvider&#45;&gt;AppModule -->
<g id="edge32" class="edge">
<title>TiledeskConversationProvider&#45;&gt;AppModule</title>
<path fill="none" stroke="#000000" d="M442,-122.2479C442,-145.0179 442,-181 442,-181 442,-181 3137.2231,-181 3137.2231,-181"/>
<polygon fill="#000000" stroke="#000000" points="3137.2232,-184.5001 3147.2231,-181 3137.2231,-177.5001 3137.2232,-184.5001"/>
</g>
<!-- UploadService -->
<g id="node34" class="node">
<title>UploadService</title>
<ellipse fill="#fdb462" stroke="#000000" cx="227" cy="-104" rx="68.3382" ry="18"/>
<text text-anchor="middle" x="227" y="-99.8" font-family="Times,serif" font-size="14.00" fill="#000000">UploadService</text>
</g>
<!-- UploadService&#45;&gt;AppModule -->
<g id="edge33" class="edge">
<title>UploadService&#45;&gt;AppModule</title>
<path fill="none" stroke="#000000" d="M227,-122.3228C227,-145.6602 227,-183 227,-183 227,-183 3137.1282,-183 3137.1282,-183"/>
<polygon fill="#000000" stroke="#000000" points="3137.1283,-186.5001 3147.1282,-183 3137.1282,-179.5001 3137.1283,-186.5001"/>
</g>
<!-- UserService -->
<g id="node35" class="node">
<title>UserService</title>
<ellipse fill="#fdb462" stroke="#000000" cx="82" cy="-104" rx="58.4415" ry="18"/>
<text text-anchor="middle" x="82" y="-99.8" font-family="Times,serif" font-size="14.00" fill="#000000">UserService</text>
</g>
<!-- UserService&#45;&gt;AppModule -->
<g id="edge34" class="edge">
<title>UserService&#45;&gt;AppModule</title>
<path fill="none" stroke="#000000" d="M82,-122.3802C82,-146.2785 82,-185 82,-185 82,-185 3137.1376,-185 3137.1376,-185"/>
<polygon fill="#000000" stroke="#000000" points="3137.1377,-188.5001 3147.1376,-185 3137.1376,-181.5001 3137.1377,-188.5001"/>
</g>
</g>
</svg>
