<svg xmlns="http://www.w3.org/2000/svg" viewBox="0 0 138 56"><defs><style>.cls-1{fill:#b3b3b2;}.cls-2{fill:#4e4d4d;}.cls-3{fill:#333;}.cls-4{fill:none;}</style></defs><title>chat21-logo</title><g id="Livello_2" data-name="Livello 2"><g id="Livello_1-2" data-name="Livello 1"><path class="cls-1" d="M102.34,4c-14.91,0-27,10.75-27,24a21.75,21.75,0,0,0,3.44,11.68A24.06,24.06,0,0,0,81,42.72l-.58,3.41-1,5.87,5.77-2.13,3.39-1.26a28.51,28.51,0,0,0,3.68,1.61,29.92,29.92,0,0,0,10,1.71c14.91,0,27-10.75,27-24S117.24,4,102.34,4Zm0,45.84A27.76,27.76,0,0,1,93,48.24a26.49,26.49,0,0,1-3.41-1.49l-.83-.43-.88.32L84.5,47.9l-2.36.87.39-2.29.58-3.41.17-1-.66-.75a22,22,0,0,1-2.1-2.8A19.76,19.76,0,0,1,77.4,28C77.4,15.91,88.59,6.1,102.34,6.1S127.27,15.91,127.27,28,116.09,49.84,102.34,49.84Z"/><path class="cls-2" d="M22.31,36.73c-.23-.23-.46-.23-.74.08a6.26,6.26,0,0,1-4.84,2.29,6.4,6.4,0,0,1-6.35-6.55A6.41,6.41,0,0,1,21.22,27.9c.23.23.54.35.81.08l.39-.39a.46.46,0,0,0,.08-.7,7.49,7.49,0,0,0-5.73-2.44,8.14,8.14,0,1,0,0,16.27,7.72,7.72,0,0,0,6.08-3c.15-.23.08-.43-.12-.62Z"/><path class="cls-2" d="M34.86,24.45a8.16,8.16,0,0,0-5.62,2.48V13.72a.51.51,0,0,0-.5-.5h-.62a.52.52,0,0,0-.54.5V39.83a.45.45,0,0,0,.43.5h.74a.45.45,0,0,0,.5-.5v-11a7.82,7.82,0,0,1,5.54-2.71c2.94,0,4.61,1.86,4.61,5.42v8.29a.51.51,0,0,0,.5.5h.7a.51.51,0,0,0,.5-.5V31.54C41.1,26.93,38.89,24.45,34.86,24.45Z"/><path class="cls-2" d="M52.65,24.45a11.22,11.22,0,0,0-5.31,1.16c-.19.08-.35.23-.23.58l.19.46a.4.4,0,0,0,.58.31,11.38,11.38,0,0,1,4.65-1c3.06,0,3.41,1.7,3.41,5.11a12.75,12.75,0,0,0-3.91-.7c-4.07,0-6.51,2.25-6.51,5.23a4.88,4.88,0,0,0,5.08,5.15A8.1,8.1,0,0,0,56,38.51l.15,1.39c.08.27.19.43.46.43h.46a.51.51,0,0,0,.5-.5v-8.6C57.57,27.28,57.37,24.45,52.65,24.45Zm3.29,12.36a7.05,7.05,0,0,1-5.15,2.4,3.5,3.5,0,0,1-3.68-3.68c0-2.29,2-3.8,4.92-3.8a10.07,10.07,0,0,1,3.91.81Z"/><path class="cls-2" d="M71.79,38.17c-.12-.19-.27-.35-.62-.15a8.28,8.28,0,0,1-3.53,1c-1.82,0-2-1-2-2.83V26.35H71a.47.47,0,0,0,.5-.5v-.5a.49.49,0,0,0-.5-.5H65.63V20.58a.51.51,0,0,0-.5-.5l-.66,0a.49.49,0,0,0-.5.5v4.22H62.14c-.27,0-.46.12-.46.39v.62c0,.31.08.5.46.5H64v10c0,2.48.27,4.38,3.49,4.38a7.71,7.71,0,0,0,4.49-1.43.45.45,0,0,0,.12-.66Z"/><path class="cls-3" d="M102.9,22.46c0-3.93-2.91-7.25-8.12-7.25-4.33,0-7.17,3.57-7.17,3.57a.72.72,0,0,0,0,.95l1.75,1.75a.66.66,0,0,0,1,0,6,6,0,0,1,4.08-2.15c2.62,0,3.86,1.67,3.86,3.31a7,7,0,0,1-1.86,4c-2.44,3.24-7,9.21-9.43,12.12v.84a.69.69,0,0,0,.69.69h14.35a.72.72,0,0,0,.69-.69V37.13a.72.72,0,0,0-.69-.69H94.2c1.93-2.44,4.7-5.86,6.26-8.08C101.88,26.32,102.9,24.82,102.9,22.46Z"/><path class="cls-3" d="M114.44,15.58H111.9L106.65,20a.75.75,0,0,0-.18.66l.22,1.78a.6.6,0,0,0,.73.47l3.2-.69V39.64a.69.69,0,0,0,.69.69h3.13a.68.68,0,0,0,.66-.69V16.27A.68.68,0,0,0,114.44,15.58Z"/><rect class="cls-4" width="138" height="56"/></g></g></svg>